<?xml version="1.0" encoding="UTF-8"?>
<svg width="28px" height="28px" viewBox="0 0 28 28" version="1.1" xmlns="http://www.w3.org/2000/svg" xmlns:xlink="http://www.w3.org/1999/xlink">
    <title>编组 3备份</title>
    <defs>
        <linearGradient x1="55.4215167%" y1="-7.17589703%" x2="41.4070961%" y2="98.4967627%" id="linearGradient-1">
            <stop stop-color="#FFD456" offset="0.0554265203%"></stop>
            <stop stop-color="#F28B61" offset="100%"></stop>
        </linearGradient>
    </defs>
    <g id="商家后台" stroke="none" stroke-width="1" fill="none" fill-rule="evenodd">
        <g id="编组-3备份-2" transform="translate(-1.000000, -1.000000)">
            <g id="编组备份-28" transform="translate(0.477193, 0.308772)">
                <path d="M7.24327918,11.2971352 L14.9682493,6.43657988 L22.6938663,11.2971592 L22.6938663,14.5116167 C22.6938663,15.0849864 23.1574411,15.5497943 23.7292896,15.5497943 C24.3011381,15.5497943 24.764713,15.0849864 24.764713,14.5116167 L24.764713,10.7229609 C24.764713,10.3656657 24.581472,10.0334763 24.2796273,9.84357039 L15.5185653,4.3315398 C15.1820433,4.11981666 14.7543733,4.11982426 14.4178588,4.33155938 L5.65748702,9.84358996 C5.35566008,10.0334996 5.1724325,10.3656788 5.1724325,10.7229609 L5.1724325,23.8123032 C5.1724325,24.3856728 5.63600732,24.8504807 6.20785584,24.8504807 L12.6592335,24.8504807 C13.2310821,24.8504807 13.6946569,24.3856728 13.6946569,23.8123032 C13.6946569,23.2389336 13.2310821,22.7741257 12.6592335,22.7741257 L7.24327918,22.7741257 L7.24327918,11.2971352 Z" id="Stroke-1" fill="#6676EC"></path>
                <path d="M22.6750216,18.9525942 L19.6419215,18.9525942 C19.3789239,18.9525942 19.1897866,18.6992788 19.2643371,18.4466556 L20.6235028,13.8343789 C20.7484439,13.4108025 20.1893153,13.1339552 19.9290789,13.489704 L14.3585013,21.1078507 C14.1672931,21.3694715 14.3543596,21.7369863 14.678102,21.7356021 L17.5986861,21.717607 C17.8706573,21.7162228 18.0618654,21.9847647 17.972819,22.2415406 L16.4700746,26.5762779 C16.3244251,26.9950095 16.8738897,27.2988494 17.1493123,26.951406 L22.9828874,19.5928036 C23.1879013,19.3346435 23.0042862,18.9525942 22.6750216,18.9525942" id="Fill-3" fill="url(#linearGradient-1)"></path>
            </g>
        </g>
    </g>
</svg>